<?xml version="1.0" encoding="utf-8"?><!DOCTYPE svg PUBLIC "-//W3C//DTD SVG 1.1//EN" "http://www.w3.org/Graphics/SVG/1.1/DTD/svg11.dtd"><svg xmlns="http://www.w3.org/2000/svg" xmlns:xlink="http://www.w3.org/1999/xlink"><symbol viewBox="0 0 32 32" id="arrowdown"><path d="M15 20c.3.4.6.5 1 .5s.7 0 1-.4l4.6-4.4c.5-.5.5-1.4 0-2s-1.4-.4-2 0L17.4 16V1.2C17.4.6 16.8 0 16 0c-.8 0-1.4.6-1.4 1.3V16l-2.2-2.3c-.5-.5-1.4-.5-2 0-.5.5-.5 1.4 0 2L15 20z"/></symbol><symbol viewBox="0 0 100 100" id="browse-arts"><path d="M13.2 13.2c8.6 3.7 26.6 2.9 25.5 19.5l-6.6 6.7c-16.4.3-16-17.1-18.9-26.2zm33.4 47.2c8.3 6.3 36.2 25.9 36.2 25.9 2.3 1.6 5.1-1.3 3.5-3.6 0 0-20.3-27.5-26.7-35.6-5.1-6.4-7.7-6.7-16.7-9.3l-6 6.1c2.8 9 3.1 11.6 9.7 16.5zm-15 10.2l8-8c-.8-.7-1.5-1.5-2.1-2.2l-8.1 8.1 2.2 2.1zm25.3-34.2l14.7-14.8 6.6 6.6-14.4 14.5c1.3 1.6 2.5 3.1 3.8 4.9l19.1-19.2-15.1-15.2L51 33.9c2.2.7 4.1 1.4 5.9 2.5zm14.8-10.3L59.6 38.3c.7.6 1.5 1.3 2.2 2.1l12.1-12.1-2.2-2.2zM42 64.6l-11 11-9.1 2.5 2.5-9.1 11.3-11.3c-1.1-1.8-1.9-3.7-2.6-5.8L18.8 66.1l-5.6 20.7L34 81.3l13-13c-3.1-2.2-3.2-2.3-5-3.7z"/></symbol><symbol viewBox="0 0 100 100" id="browse-business"><path d="M90.5 20.3l-20.2 4.1 5.8 5.8L58 48.3 47.9 38.1 23.1 62.6l4.8 4.8 20-19.7L58 57.8 80.8 35l5.6 5.6 4.1-20.3zM34.2 42.2l-11.1-11 4.8-4.8 11.1 11-4.8 4.8zm52.2 11.1l4.1 20.3-20.2-4.1 5.8-5.8-7.2-7.2 4.8-4.8 7.2 7.2 5.5-5.6zm4.1 27.6v6.8h-81V13.4h6.8v67.5h74.2z"/></symbol><symbol viewBox="0 0 100 100" id="browse-education"><path d="M87 26.5v46.7l-3.4.4V19.7c-13.1.4-25.2 2.6-33.6 7.8-8.4-5.2-20.5-7.4-33.6-7.8v53.8l-3.4-.4V26.5H9.7v50.4h30.4c5 0 5.5 3.4 9.9 3.4s4.9-3.4 9.9-3.4h30.5V26.5H87zM46.6 72.3c-6.5-2.6-13.9-4.3-23.5-5V26.8c7.9.7 16.8 2.3 23.5 6.5v39zm30.3-5c-9.6.7-17 2.4-23.5 5v-39c6.7-4.2 15.6-5.8 23.5-6.5v40.5z"/></symbol><symbol viewBox="0 0 100 100" id="browse-engineering"><path d="M82.1 65.8c-.1.8-.2 1.5-.3 2.3 0 .3-.1.6-.1.9-.2 1.3-.6 2.2-1.3 2.8l-.9.6c-1.4.6-2.9.4-4.1-.7-1.9-1.6-2.2-4.1-.7-5.9.2-.2.3-.4.6-.6.2-.1.3-.3.5-.4.2-.1.4-.3.5-.4h.1s.1 0 .1-.1c.4-.3.6-.6.6-1 0-.3-.3-.6-.2-.8.1 0 .2.1.4.2.3.1.7.2 1 .1.2 0 .4-.1.6-.2.1 0 .1-.1.2-.1.3-.1.2.4.2.5.1.4-.1.8-.4 1.2-.1.1-.2.2-.2.3-.7.8-1.4 1.5-1.8 2.6-.2.6-.4 1.4 0 2.1.4.7 1 1 1.7.9.7-.1 1.3-.6 1.6-1.3.1-.2.2-.4.3-.7.2-.6.5-1.2.7-1.7.1-.2.3-.5.5-.7l.1-.1c.1-.1.3-.1.4 0-.2-.1-.1.1-.1.2z"/><path d="M84.2 57.1c-.1-.2-.2-.5-.3-.7l-.3-.3H72.8c-.2 0-.4 0-.6.1-.1 0-.1.1-.1.2l-.3.6c-.2.7-.1 1.3.3 1.9l.2.2.5.5 1.1 1.1 1.3 1.3 1.1 1.1c.3.3.5.6.9.7.4.2.9.2 1.3.1.5-.1.8-.6 1.2-.9l1.2-1.2 1.4-1.4c.3-.4.7-.7 1-1.1l.3-.3c.5-.5.8-1.2.6-1.9z"/><path d="M91.5 26.7L44.6 14H26.3l-18 12.7v9.7h18v33.7L22 74.7V86h26.9V74.6l-4.3-4.5V16.5l37.8 10.2H48.6v9.7h24.6v18.4h2.9V36.4h3.5v18.4h2.9V36.4h9.2V26.7h-.2zm-65.1 0h-14l13.9-9.8v9.8zm4.4-5.2l7.2 4.3-7.2 3.8v-8.1zm0 12.7l7.2 4.3-7.2 3.8v-8.1zm0 12.7l7.2 4.3-7.2 3.8v-8.1zm0 12.1l7.2 4.3-7.2 3.8V59zm9.4 11.1h-9.5V70l9.2-4.9.1-.1c.1 0 .1-.1.2-.2v5.3zm0-8.3s0-.1 0 0l-7.8-4.7 7.5-4 .1-.1c.1 0 .1-.1.2-.2v9zm0-12c0-.1 0-.1 0 0l-8.4-5.1 8.1-4.3.1-.1c.1 0 .1-.1.2-.2v9.7zm0-12.7c0-.1 0-.1 0 0L31.8 32l8.1-4.3.1-.1c.1 0 .1-.1.2-.2v9.7zm0-12.7c0-.1 0-.1 0 0l-9.5-5.7v-.2h9.5v5.9z"/></symbol><symbol viewBox="0 0 100 100" id="browse-health"><path d="M66.6 11.8c-5.8 0-11.5 2.1-16.6 7.4-5.1-5.4-10.8-7.4-16.6-7.4-11.4 0-22.1 9.1-22.1 22.1 0 4.9 1.1 9.5 3 13.8h11.8l10.4-24.4L48.1 58l3.2-4.8h5c1-1.6 2.7-2.8 4.8-2.8 3.1 0 5.5 2.5 5.5 5.5 0 3.1-2.5 5.5-5.5 5.5-2 0-3.8-1.1-4.8-2.8h-2.1l-7.8 11.8-10.5-31.5-6.2 14.3H17.1c7 12 19 22.2 27.4 32.5 2.5 3.1 4.1 3.4 5.5 3.4s3-.3 5.5-3.4C68.1 70.4 88.7 55 88.7 33.9c0-13-10.7-22.1-22.1-22.1z"/></symbol><symbol viewBox="0 0 100 100" id="browse-indigenous"><path d="M61.7 30c-8.5 0-17.2 4.2-17.2 13.7 0 7.5 9 10 9.4 10.1.5.1.8 0 1.3-.3.4-.3.2-.8.2-1.4v-3.3c0-2.2 1-5.9 4.7-5.9 3.5 0 4.9 3.7 4.9 5.9 0 4.7-2.9 10.1-11.1 10.1-3 0-6.2-1.2-8.9-3.4-3.9-3.1-6.1-7.6-6.1-12.4 0-9.1 8-18.4 21.3-18.4C69.3 24.9 80 30 85 36.8c.4.6 1.2.8 1.9.6.7-.2 1.2-.9 1.2-1.6 0-9.1-12.2-26-35.6-26-23.8 0-41.1 16.9-41.1 40.2 0 22.2 18.1 40.2 40.2 40.2 10.6 0 20.2-3.9 27.1-10.9 6.3-6.5 9.9-15.3 9.9-24.2C88.6 40.3 74.4 30 61.7 30zm-10 54.6c-17.4 0-33.8-16.2-33.8-33.3 0-.9.8-1.7 1.7-1.7s1.7.8 1.7 1.7c0 16.6 16.6 29.9 30.4 29.9.9 0 1.7.8 1.7 1.7 0 .9-.8 1.7-1.7 1.7z"/></symbol><symbol viewBox="0 0 100 100" id="browse-justice"><path d="M46 81l-.1-.7c0-1.6-1.3-2.8-2.8-2.8H17.9c-1.6 0-2.8 1.3-2.8 2.8v.7h-.3c-2.3 0-4.1 1.8-4.1 4.1v3.7H50.1v-3.7c0-2.2-1.8-4.1-4.1-4.1zM34.3 53.8L21.5 40c-1.3-1.4-1.3-3.7.2-4.9l2-1.8c1.4-1.3 3.7-1.3 4.9.2l12.8 13.7c1.3 1.4 1.3 3.7-.2 4.9l-2 1.8c-1.3 1.3-3.6 1.2-4.9-.1zM51.5 12.3L64.3 26c1.3 1.4 1.3 3.7-.2 4.9l-2 1.8c-1.4 1.3-3.7 1.3-4.9-.2L44.3 18.9c-1.3-1.4-1.3-3.7.2-4.9l2-1.8c1.4-1.4 3.6-1.3 5 .1zM89.2 76.8s0-1.6-1.3-2.8L55.1 40.8l2-1.8-3-3.4 1.9-1.7L42.9 20l-13 12.1 13 13.9 1.7-1.6 3 3.4 2.4-2.2 32.2 32.9c1.3 1.3 2.9 1.6 2.9 1.6l4.1.7v-4z"/></symbol><symbol viewBox="0 0 100 100" id="browse-language"><path d="M59.4 40c0-4.6-3.4-8.4-8.4-8.4V9.3C32 13.2 18 29.9 18 50c0 20.2 14 37.1 33 41.2V72.6c-4 0-8.4-3.8-8.4-8.4 0-4.6 4.4-8.4 8.4-8.4v-7.4c5-.1 8.4-3.8 8.4-8.4zm-19-7.9c-2.6 0-4.7-2.1-4.7-4.7s2.1-4.7 4.7-4.7 4.7 2.1 4.7 4.7c-.1 2.6-2.2 4.7-4.7 4.7z"/><path d="M67.5 63h-11c-.9 0-1.6.6-1.6 1.5s.7 1.5 1.6 1.5h11c.9 0 1.6-.6 1.6-1.5s-.7-1.5-1.6-1.5zM54.5 59.2c.2.9 1.1 1.4 2 1.2l10.6-2.9c.9-.2 1.4-1.1 1.2-2-.2-.9-1.1-1.4-2-1.2l-10.6 2.9c-.9.2-1.5 1.1-1.2 2zM67.1 70.9L56.5 68c-.9-.2-1.8.3-2 1.2-.2.9.3 1.8 1.2 2l10.6 2.9c.9.2 1.8-.3 2-1.2.2-.9-.3-1.8-1.2-2z"/></symbol><symbol viewBox="0 0 100 100" id="browse-performingArts"><path d="M44.7 24.8c2.4 0 4.4 2 4.4 4.4 0 .3-.1.7-.2 1 2.1.9 5.1 1.6 7.1 2V11.6c0-.6-.2-1.2-.7-1.5-.5-.3-1.1-.4-1.7-.1-4.5 2.2-10.4 3.4-16.8 3.4S24.4 12.2 19.9 10c-.5-.3-1.4-.2-1.9.1-.5.3-1 .9-1 1.5v35.3c0 10.7 8.7 19.4 19.4 19.4 1.2 0 2.6-.1 3.6-.3V48.1c-1-.2-2.2-.4-3.4-.4-3.8 0-7.3 1.2-9.9 3.3-.3.2-.6.3-.9.1-.3-.1-.5-.5-.5-.8 0-6.3 5-11.5 11.3-11.5 1.2 0 2.4.2 3.4.6v-5c0-1 .4-2 1-2.8-.5-.7-.7-1.6-.7-2.5-.1-2.4 2-4.3 4.4-4.3zm-15.8 8.8c-2.4 0-4.4-2-4.4-4.4 0-2.4 2-4.4 4.4-4.4s4.4 2 4.4 4.4c0 2.4-2 4.4-4.4 4.4z"/><path d="M82 33c-.5-.3-1.2-.4-1.8-.1-4.5 2.2-10.5 3.4-16.9 3.4S50.9 35 46.4 32.9c-.5-.3-1.1-.2-1.6.1-.5.3-.8.9-.8 1.5v35.3c0 10.7 8.8 19.4 19.5 19.4S83 80.5 83 69.8V34.5c0-.6-.5-1.2-1-1.5zM55.3 47.7c2.4 0 4.4 2 4.4 4.4 0 2.4-2 4.4-4.4 4.4-2.4 0-4.4-2-4.4-4.4 0-2.4 2-4.4 4.4-4.4zm7.9 30c-6.3 0-11.5-5.1-11.5-11.5 0-.3.2-.6.5-.8.3-.1.7-.1.9.1 2.7 2.1 6.2 3.3 10 3.3s7.4-1.2 10-3.3c.3-.2.6-.3.9-.1.3.1.5.5.5.8.2 6.3-4.9 11.5-11.3 11.5zm8-21.2c-2.4 0-4.4-2-4.4-4.4 0-2.4 2-4.4 4.4-4.4 2.4 0 4.4 2 4.4 4.4 0 2.4-2 4.4-4.4 4.4z"/></symbol><symbol viewBox="0 0 100 100" id="browse-science"><path d="M88.7 80.2h-9.4V66.8c0-5.6-4.6-10.2-10.2-10.2s-10.2 4.6-10.2 10.2v13.3H11.3c-.7 0-1.2.6-1.2 1.2v7.2c0 .6.5 1.2 1.2 1.2h77.3c.6 0 1.2-.6 1.2-1.2v-7.2c.1-.6-.5-1.1-1.1-1.1zm-19.5-9.1c-2.4 0-4.2-1.9-4.2-4.2s1.9-4.2 4.2-4.2 4.2 1.9 4.2 4.2c-.1 2.2-1.9 4.2-4.2 4.2z"/><path d="M27.8 70.8h28.7v-4c0-2 .5-4 1.4-5.7H27.8c-.7 0-1.2.6-1.2 1.2v7.2c0 .8.5 1.3 1.2 1.3zM42.1 50.1h1.4v3.5c0 .7.6 1.2 1.2 1.2h10.4c.6 0 1.2-.5 1.2-1.2v-3.5h1.4c.7 0 1.2-.6 1.2-1.2V37.8c-.4 0-.9.1-1.2.1-5 0-9-4-9-9s4-9 9-9c.4 0 .9 0 1.2.1v-4.4c0-.6-.5-1.2-1.2-1.2h-2.4v-3.1c0-.7-.5-1.2-1.2-1.2h-8.5c-.7 0-1.2.5-1.2 1.2v3.1H42c-.7 0-1.2.6-1.2 1.2v33.2c.1.8.7 1.3 1.3 1.3zM62.5 36.5c5 3.6 7.9 9.2 7.9 15.5 0 .7 0 1.4-.1 2.1 3.6.4 6.9 2.2 9 5 .6-2.2.9-4.6.9-7.1 0-10-5.2-19.2-13.5-24.6.1.5.1.9.1 1.4-.1 3.4-1.7 6.2-4.3 7.7z"/><path d="M51.4 28.9c0 3.6 2.9 6.5 6.5 6.5s6.5-2.9 6.5-6.5-2.9-6.5-6.5-6.5-6.5 3-6.5 6.5zm7.7 1.3h-2.5v-2.5h2.5v2.5z"/></symbol><symbol viewBox="0 0 100 100" id="browse-social"><path d="M87.2 80.3c-4.4-3.5-10.6-7.9-15.6-10.5v-4.9c.7-1.2 1.2-2.6 1.5-4 .6 0 1.3-.8 2.1-3.7 1.1-3.9-.1-4.5-1.1-4.4.2-.5.3-1.1.4-1.6 1.7-10.1-3.3-10.4-3.3-10.4-.7-1.2-1.8-2.1-3-2.8-1.9-1.1-4-1.5-6.2-1.3-.8 0-1.6.1-2.4.4-1 .3-1.9.8-2.7 1.4-1 .6-2 1.4-2.8 2.3-1.5 1.4-2.5 3.3-3 5.3-.4 1.7-.4 3.5 0 5.2.1.5.2 1.1.4 1.6-1-.1-2.2.5-1.1 4.4.8 2.8 1.6 3.6 2.1 3.7.2 1.5.7 2.9 1.5 4.1v4.8c-3.4 1.8-8.2 5.1-11.4 7.3-1-.3-2-.7-2.9-1.2l-.2-.1c-.5-.3-.8-.9-.8-1.5v-3.2s6.8.2 10-3.1c0 0-4.7-1.4-3.8-9.9.8-8.5-1-16-7.9-15.4 0 0-3-3.6-8.9-1.3-2 .8-7.5 2.7-7.2 14.6.5 11.8-4 11.9-4 11.9s2.3 3.4 10.2 3.3v3c0 .6-.3 1.1-.8 1.5l-.2.1c-2.4 1.1-4.9 1.9-7.4 2.6-1.6.4-3.2 1-4.6 1.7-1.8.8-3 2.5-3.2 4.5v7h78.2v-7.4c0-1.5-.7-3-1.9-4zM38.8 32.1h3.1v5.4c0 .4.3.7.7.7.1 0 .3 0 .4-.1l8.8-6h9.9c1.8 0 3.3-1.5 3.3-3.3V12.6c0-1.8-1.5-3.3-3.3-3.3H38.8c-1.8 0-3.3 1.5-3.3 3.3v16.2c0 1.8 1.5 3.3 3.3 3.3zm15.4-5.8h-7.8c-.7 0-1.2-.6-1.2-1.2 0-.7.6-1.2 1.2-1.2h7.8c.7 0 1.2.6 1.2 1.2 0 .7-.6 1.2-1.2 1.2zm0-4.4h-7.8c-.7 0-1.2-.6-1.2-1.2s.6-1.2 1.2-1.2h7.8c.7 0 1.2.6 1.2 1.2s-.6 1.2-1.2 1.2zM44.1 15h12.4c.7 0 1.2.6 1.2 1.2 0 .7-.6 1.2-1.2 1.2H44.1c-.7 0-1.2-.6-1.2-1.2-.1-.7.5-1.2 1.2-1.2z"/></symbol><symbol viewBox="0 0 100 100" id="browse-tech"><path d="M56.7 73.3H43.3c-.9 0-1.7.7-1.7 1.7s.7 1.7 1.7 1.7h13.3c.9 0 1.7-.7 1.7-1.7s-.7-1.7-1.6-1.7zm0 6.7H43.3c-.9 0-1.7.7-1.7 1.7s.7 1.7 1.7 1.7h13.3c.9 0 1.7-.7 1.7-1.7s-.7-1.7-1.6-1.7zm.8 6.6h-15l4 2.6c.5.5 1.3.7 2 .7h3c.8 0 1.5-.3 2-.7l4-2.6zM70 40.7C70 52.6 59.3 60.6 59.3 70H40.7c0-9.4-10.7-17.4-10.7-29.3 0-12.4 10-19.2 20-19.2s20 6.8 20 19.2zm13.3-2.3V43h-8.5c.1-.7.1-1.5.1-2.3 0-.8-.1-1.5-.1-2.3h8.5zM47.8 16.6V10h4.6v6.5c-.8-.1-1.6-.1-2.4-.1-.7.1-1.4.1-2.2.2zm-12.4 4.3l-3.5-6.5 4-2.2 3.5 6.4c-1.4.7-2.7 1.4-4 2.3zm35.2 5.7l6.5-4.6 2.7 3.7-6.8 4.9c-.7-1.4-1.5-2.7-2.4-4zm-10-7.9l3.5-6.4 4 2.2-3.5 6.5c-1.3-1-2.6-1.7-4-2.3zM27.1 30.6l-6.8-4.9L23 22l6.5 4.6c-1 1.3-1.8 2.6-2.4 4zm45.6 20.7l7.8 3.2-1.7 4.2-8.1-3.3c.8-1.2 1.4-2.6 2-4.1zm-43.6 3.9l-7.8 3.5-1.9-4.2 7.8-3.5c.5 1.5 1.2 2.9 1.9 4.2zm-3.9-12.3h-8.5v-4.6h8.4c-.1.8-.1 1.5-.1 2.3 0 .9.1 1.6.2 2.3z"/></symbol><symbol viewBox="0 0 32 32" id="checkmark-circle"><path d="M16 0C7.2 0 0 7.2 0 16s7.2 16 16 16 16-7.2 16-16S24.8 0 16 0zm8 12l-9.7 10.2c-.2.3-.6.3-1 0V22l-.3-.2-1-1-4-4.4c-.3-.3-.3-.7 0-1l1-1.2c.2-.2.6-.2 1 0l3.7 4 8-8.2c0-.3.5-.3.8 0l1.3 1.4c.3.2.3.6 0 1z"/></symbol><symbol viewBox="0 0 32 32" id="downloadcircle"><path d="M26.7 4.8c-.2-.3-.6-.4-1-.4-.8 0-1.4.6-1.4 1.3 0 .4.2.8.5 1 2.7 2.4 4.4 5.8 4.4 9.7 0 7-6 13-13.3 13-7.4 0-13.4-6-13.4-13C2.6 12.6 4.3 9 7 6.7c.3-.2.5-.6.5-1C7.5 5 7 4.4 6 4.4c-.3 0-.6.2-1 .4-3 2.8-5 7-5 11.6C0 25 7.2 32 16 32s16-7 16-15.6c0-4.6-2-8.8-5.3-11.6z"/></symbol><symbol viewBox="0 0 16 16" id="ellipsis"><path d="M14.1 6.3c-1 0-1.9.8-1.9 1.7s.8 1.7 1.9 1.7C15.2 9.7 16 9 16 8s-.8-1.7-1.9-1.7zM8 6.3C7 6.3 6.1 7 6.1 8S7 9.7 8 9.7C9 9.7 9.9 9 9.9 8S9 6.3 8 6.3zm-6.1 0C.8 6.3 0 7 0 8s.8 1.7 1.9 1.7c1 0 1.9-.8 1.9-1.7s-.9-1.7-1.9-1.7z"/></symbol><symbol viewBox="0 0 32 32" id="enlarge"><path d="M23.7 22.7c2.4-2.4 4-5.7 4-9.4C27.7 6 21.7.1 14.4.1 7 0 1 5.9 1 13.2s6 13.2 13.3 13.2c2.7 0 5.2-.8 7.2-2.1l-.2.2 7.5 7.5 2.1-2.1-7.2-7.2zm-3.4-8h-4.4v4.4h-3v-4.4H8.4v-3h4.5V7.3h3v4.4h4.4v3z"/></symbol><symbol viewBox="0 0 32 32" id="icn-arrow"><path d="M24.5 14L11.5.8c-.5-.5-1.2-.8-2-.8S8 .3 7.5.8c-1 1-1 3 0 4l11 11-11 11.3c-1 1.2-1 3 0 4 .5.7 1.2 1 1.6 1h.4c.8 0 1.5-.3 2-.8l13-13.2c1-1 1-3 0-4z"/></symbol><symbol viewBox="0 0 20 20" id="icn-calendar"><path d="M0 20V6.1h20V20H0zm14.7-2.2h2.7v-2.6h-2.7v2.6zm-4 0h2.7v-2.6h-2.7v2.6zm-4.1 0h2.7v-2.6H6.6v2.6zm-4 0h2.7v-2.6H2.6v2.6zm12.1-3.5h2.7v-2.6h-2.7v2.6zm-4 0h2.7v-2.6h-2.7v2.6zm-4.1 0h2.7v-2.6H6.6v2.6zm-4 0h2.7v-2.6H2.6v2.6zm12.1-3.4h2.7V8.3h-2.7v2.6zm-4 0h2.7V8.3h-2.7v2.6zm-4.1 0h2.7V8.3H6.6v2.6zm-4 0h2.7V8.3H2.6v2.6zM0 5.2v-3h2.2V0h3.5v2.2h8.7V0h3.5v2.2H20v3H0z"/></symbol><symbol viewBox="0 0 20 20" id="icn-chevron"><path d="M5 20a.47.47 0 0 1-.35-.15c-.2-.2-.2-.5 0-.7l8.64-8.65-8.65-8.65c-.2-.2-.2-.5 0-.7s.5-.2.7 0l9 9c.2.2.2.5 0 .7l-9 9c-.1.1-.22.15-.35.15z"/></symbol><symbol viewBox="-629 391 20 20" id="icn-close"><path d="M-612.5 406.5l-5.5-5.5 5.5-5.5c.1-.1.2-.3.2-.5s-.1-.4-.2-.5c-.3-.3-.8-.3-1.1 0l-5.5 5.5-5.5-5.5c-.3-.3-.8-.3-1.1 0-.3.3-.3.8 0 1.1l5.5 5.5-5.5 5.5c-.1.1-.2.3-.2.5s.1.4.2.5c.3.3.8.3 1.1 0l5.5-5.5 5.5 5.5c.1.1.3.2.5.2s.4-.1.5-.2c.4-.4.4-.8.1-1.1z"/></symbol><symbol viewBox="-285 408.9 24 24" id="icn-duration"><path d="M-274 415v8h7v-2h-5v-6h-2zm11 7.6l2 .2c-.2 1-.5 1.7-.8 2.5l-1.8-1c.2-.6.4-1 .5-1.7zm-2.7 7.8l-1.4-1.4-1.7 1 .7 1.8 2.3-1.4zm1.2-4.3l-1 1.6 1.3 1.4c.6-.6 1-1.3 1.5-2l-1.8-1zm-20.5-5c0 6.5 5.4 12 12 12 1 0 2-.3 3-.5l-.6-2c-.8.3-1.6.4-2.5.4-5.6 0-10-4.6-10-10 0-5.6 4.4-10 10-10 2 0 4.2.6 6 2l-2.2 2 7 1.3-1.4-7-2.2 2.2c-2-1.6-4.6-2.6-7.4-2.6-6.4 0-11.8 5.3-11.8 12zm23.8-2.5h-2l.2 2 2 .2c0-.7 0-1.5-.2-2.2z"/></symbol><symbol viewBox="0 0 1024 1024" id="icn-email"><path d="M512 542.421L.64 128h1022.763L512 542.421zm-231.467-77.738L0 237.312v533.376l280.533-306.005zm462.934 0L1024 770.688V237.312L743.467 464.683zm-66.432 53.802L512 652.245l-165.035-133.76L.938 896h1022.123L677.034 518.485z"/></symbol><symbol viewBox="0 0 9.285 19.98" id="icn-facebook"><path d="M9.3 6.5H6v-2c0-1 .6-1 1-1h2.2V0h-3C2.7 0 2 2.6 2 4.2v2.3H0V10h2v10h4V10h3l.3-3.5z"/></symbol><symbol viewBox="-449 438 100 100" id="icn-filter"><path d="M-427.9 491.9h-15.8v-13.2H-420v13.2h-7.9zm0 46.1v-43.4h-7.9V538h7.9zm0-61.8V438h-7.9v38.2h7.9zm25 50V538h7.9v-11.8h-7.9zm7.8-2.7h7.9v-13.2H-410.9v13.2h15.8zm0-15.8V438h-7.9v69.7h7.9zm17.2-47.3v13.2H-354.2v-13.2H-377.9zm15.7-22.4h-7.9v19.7h7.9V438zm-7.9 38.2V538h7.9v-61.8h-7.9z"/></symbol><symbol viewBox="-629 391 20 20" id="icn-hamburger"><path d="M-626.5 397.2h15c.4 0 .8-.3.8-.8s-.3-.8-.8-.8h-15c-.4 0-.8.3-.8.8s.4.8.8.8zm15 3.6h-15c-.4 0-.8.3-.8.8s.3.8.8.8h15c.4 0 .8-.3.8-.8s-.4-.8-.8-.8zm0 5h-15c-.4 0-.8.3-.8.8s.3.8.8.8h15c.4 0 .8-.3.8-.8s-.4-.8-.8-.8z"/></symbol><symbol viewBox="0 0 18.718 18.718" id="icn-instagram"><path d="M15 0H3.7C1.6 0 0 1.6 0 3.6V15c0 2 1.6 3.7 3.6 3.7H15c2 0 3.7-1.6 3.7-3.6V3.7C18.7 1.6 17 0 15 0zm1 2.2h.6v3.1h-3.2v-3H16zM6.8 7.4C7.3 6.6 8.3 6 9.4 6s2 .6 2.6 1.4c.4.6.7 1.2.7 2 0 1.8-1.5 3.3-3.3 3.3S6 11.2 6 9.4c0-.8.3-1.4.7-2zM17 15c0 1-1 2-2 2H3.7c-1 0-1.8-1-1.8-2V7.5h2.8c-.2.6-.4 1.3-.4 2 0 2.8 2.3 5 5.2 5 2.8 0 5-2.2 5-5 0-.7 0-1.4-.3-2h3V15z"/></symbol><symbol viewBox="0 0 19.036 17.479" id="icn-linkedin"><path d="M4.2 17.5H.5v-12h3.7v12zM2.2 4C1 4 0 3.3 0 2c0-1 1-2 2.3-2 1.3 0 2.2 1 2.2 2 0 1.2-1 2-2.3 2zM19 17.6h-4.2v-6.2c0-1.6-.6-2.7-2-2.7-1.2 0-1.8.8-2 1.5-.2.3-.2.7-.2 1v6.5h-4v-12h4v2c.3-.8 1.6-2 3.7-2C17 5.5 19 7.2 19 11v6.5z"/></symbol><symbol viewBox="-37 39 24 24" id="icn-location"><path d="M-25 39c-3 0-6 2.6-6 5.7 0 3 2.6 7 6 12.3 3.4-5.4 6-9.2 6-12.3 0-3-3-5.7-6-5.7zm0 8c-1 0-2-1-2-2s1-2 2-2 2 1 2 2-1 2-2 2zm8 12c0 2.2-3.6 4-8 4s-8-1.8-8-4c0-1.6 2-3 4.6-3.6l1.2 1.8c-.4 0-.8 0-1.2.2-3.3 1-3.5 2 0 3 2 .7 4.8.7 7 0 3.5-1 3-2.2-.4-3-.3-.2-.6-.2-1-.3l1.3-1.7c2.6.7 4.5 2 4.5 3.7z"/></symbol><symbol viewBox="0 0 512 512" id="icn-pause"><path d="M128 96h79v320h-79zM305 96h79v320h-79z"/></symbol><symbol viewBox="0 0 1024 1024" id="icn-phone"><path d="M788.48 978.176l-50.901 28.075C439.808 1160.747-76.586 259.84 213.675 89.6l48.853-27.179 158.464 275.925-48.597 26.965c-88.192 53.12 117.76 414.165 208.171 364.587l49.579-27.392 158.336 275.669zM370.005 0l-71.68 41.6 158.464 275.883 71.723-41.6L370.005 0zm367.488 639.872l-71.68 41.6 158.464 275.925 71.723-41.6-158.507-275.925z"/></symbol><symbol viewBox="0 0 32 32" id="icn-play"><path d="M1.4 0v32l29.2-16L1.4 0"/></symbol><symbol viewBox="-285 409.2 23.7 23.7" id="icn-points"><path d="M-273 409.2c-6.6 0-12 5.3-12 11.8s5.4 11.8 12 11.8 11.7-5.3 11.7-11.8-5.3-11.8-11.8-11.8zm0 21.8c-5.6 0-10-4.5-10-10s4.4-10 10-10 10 4.5 10 10-4.6 10-10 10z"/><path d="M-267.2 419.7h-4.5v-4.5h-2.6v4.5h-4.5v2.6h4.5v4.5h2.6v-4.5h4.5v-2.6z"/></symbol><symbol viewBox="-285 410.8 24.2 20.1" id="icn-programme-type"><path d="M-227.5 465.7l1.7-.9V461l-1.7.9zM-235.1 465.8c-.1 0-.3 0-.4-.1l-8.1-4.3v3.8l8.5 4.5 4.8-2.5v-3.8l-4.4 2.4h-.4z"/><path d="M-228.6 461.2l-4.7-2.5c0-.5-.2-1-.7-1.2-.2-.1-.4-.2-.6-.2-.5 0-1 .3-1.2.7-.4.7-.1 1.5.6 1.8.2.1.4.2.6.2.3 0 .6-.1.8-.3l4.4 2.3v7.8c0 .3.3.6.6.6s.6-.3.6-.6v-8.2c-.1-.1-.2-.3-.4-.4z"/><path d="M-235.1 452.9l-12.1 5.7 12.1 6.5 4.8-2.5-3.5-1.9c-.2.1-.5.1-.8.1-.4 0-.7-.1-1-.3-.5-.3-.9-.7-1.1-1.3s-.1-1.1.2-1.7c.4-.7 1.1-1.1 1.9-1.1.4 0 .7.1 1 .3.6.3 1 .8 1.1 1.4l4.3 2.3c.3.1.5.3.6.6l4.6-2.5-12.1-5.6z"/><g><path d="M-272.9 410.738l-12.1 6.9 12.1 6.5 12.1-6.5-12.1-6.9zm11 9.5l-1.7 1v8.3l.9-1.9.9.8v-8.2h-.1zm-3.3 1.9l-7.7 4.2-7.7-4.1v4.3l7.7 4.4 7.7-4.4v-4.4z"/></g></symbol><symbol viewBox="-629 391 20 20" id="icn-search"><path d="M-610 409.5l-4.7-5.3c1.3-1.4 2-3.3 2-5.2 0-2-.8-4-2.3-5.5-1.5-1.5-3.4-2.3-5.5-2.3-2 0-4 .8-5.5 2.3-1.5 1.5-2.3 3.4-2.3 5.5 0 2 .8 4 2.3 5.5 1.5 1.5 3.4 2.3 5.5 2.3 1.7 0 3.3-.5 4.7-1.6l4.7 5.3c0 .2.2.2.5.2.2 0 .4 0 .5-.2l.2-.5c0-.2 0-.4-.2-.5zm-10.5-16.7c3.4 0 6.2 2.8 6.2 6.2s-2.8 6.2-6.2 6.2-6.2-2.8-6.2-6.2 2.8-6.2 6.2-6.2z"/></symbol><symbol viewBox="-285 408.9 24 24" id="icn-start-date"><path d="M-265 429h-4v-4h4v4zm-6-10h-4v4h4v-4zm6 0h-4v4h4v-4zm-12 6h-4v4h4v-4zm6 0h-4v4h4v-4zm-6-6h-4v4h4v-4zm16-8v22h-24v-22h3v1c0 1 1 2 2 2s2-1 2-2v-1h10v1c0 1 1 2 2 2s2-1 2-2v-1h3zm-2 6h-20v14h20v-14zm-2-7c0-.7-.4-1-1-1s-1 .3-1 1v2c0 .5.4 1 1 1s1-.5 1-1v-2zm-14 2c0 .5-.4 1-1 1s-1-.5-1-1v-2c0-.7.4-1 1-1s1 .3 1 1v2z"/></symbol><symbol viewBox="0 0 20 17.555" id="icn-twitter"><path d="M20 2c-.7.4-1.5.7-2.3.8.8-.6 1.5-1.4 1.8-2.5-.8.5-1.7 1-2.6 1C16 .6 15 0 14 0c-2.4 0-4.3 2-4.3 4.4v1c-3.3 0-6.3-2-8.3-4.6C1 1.5.8 2.2.8 3c0 1.6.7 3 1.8 3.7-.6 0-1.3-.2-1.8-.5 0 2.2 1.4 4 3.3 4.4H2.3c.5 1.8 2 3 4 3-1.5 1.3-3.3 2-5.2 2H0c1.8 1.2 4 2 6.3 2C13.8 17.6 18 10.8 18 5v-.6c.8-.7 1.5-1.4 2-2.3z"/></symbol><symbol viewBox="0 0 18.66 12.871" id="icn-youtube"><path d="M18.34 2.02c0-.07-.03-.14-.05-.2 0-.04-.02-.08-.03-.1-.24-.7-.9-1.22-1.7-1.22h.13S13.54.02 9.33 0c-4.2.02-7.37.5-7.37.5h.12C1.3.5.64 1 .39 1.7c0 .04 0 .08-.02.1 0 .08-.03.15-.04.22-.1.82-.3 2.45-.32 4.4.02 1.98.2 3.6.32 4.43 0 .07.03.14.04.2 0 .04.02.08.03.1.23.7.9 1.22 1.7 1.22h-.14s3.16.48 7.37.5c4.2-.02 7.37-.5 7.37-.5h-.13c.8 0 1.46-.5 1.7-1.2 0-.04 0-.08.02-.1 0-.08.03-.15.04-.22.1-.82.3-2.45.32-4.4-.02-1.98-.2-3.6-.32-4.43zm-6.25 4.8L8.32 9.58c-.08.06-.18.1-.27.1-.07 0-.14-.03-.2-.06a.419.419 0 0 1-.25-.4V3.73a.457.457 0 0 1 .73-.36L12.1 6.1c.1.1.18.22.18.37 0 .14-.07.28-.2.36z"/></symbol><symbol viewBox="0 0 338.24 324.79" id="logo-big"><path fill="#00467f" d="M0 48.4L48.4 0h289.8v276.3l-48.5 48.5H.2L0 48.4"/><path fill="#fff" d="M51.6 249H53v-9h3v-1.3h-7.6v1.4h3.2v9m6.8-7.1c-1.7 0-3 1.5-3 3.5 0 1.8 1 3.6 3 3.6a3.7 3.7 0 0 0 2.5-.7V247a3.6 3.6 0 0 1-2.2.8 2 2 0 0 1-2-2H61c0-2.5-1-3.7-2.6-3.7zm-1.6 3a1.6 1.6 0 0 1 1.6-1.8 1.5 1.5 0 0 1 1.4 1.7h-3zm15.7-6.3h-1.2l-2.6 7-2.5-7H65l3.6 10.3h.3l3-8.3 3 8.3h.2l3.7-10.3h-1.4l-2.5 7-2.5-7M85.5 249v-4.2c0-1.8-1-2.7-2-2.7a2.3 2.3 0 0 0-1.8 1v-4.3h-1.2V249h1.2v-5a2 2 0 0 1 1.5-1c.7 0 1.2.7 1.2 1.7v4.2h1.2zm4-3.7c-1 .4-2 .8-2 2a1.5 1.5 0 0 0 1.4 1.7 2.5 2.5 0 0 0 1.5-.6.8.8 0 0 0 1 .6 1.8 1.8 0 0 0 1-.5v-.8a1.3 1.3 0 0 1-.6.4c-.2 0-.3 0-.3-.3v-3.4a2 2 0 0 0-2.2-2.2 2.4 2.4 0 0 0-2 1v1.4a2.4 2.4 0 0 1 2-1 1 1 0 0 1 1 1v.5zm1 2.3a1.5 1.5 0 0 1-1 .5 1 1 0 0 1-.8-.8c0-.8.8-1.2 2-1.6v2zm3.9-5.4v6.7h1.2v-3.6c0-1 .7-2 1.5-2a2 2 0 0 1 1.2.6l.6-1a2 2 0 0 0-1.4-1c-.6 0-1 .6-1.8 1.8v-1.6h-1.2zm8.3-.2c-1.7 0-3 1.5-3 3.5 0 1.8 1 3.6 3 3.6a3.7 3.7 0 0 0 2.5-.7V247a3.6 3.6 0 0 1-2 .8 2 2 0 0 1-2-2h4c0-2.5-1-3.7-2.5-3.7zm-1.6 3a1.6 1.6 0 0 1 1.7-1.8 1.5 1.5 0 0 1 1.4 1.7h-3zm15.7-6.3h-1.2l-2.6 7-2.5-7h-1.3L113 249h.2l3-8.3 3 8.3h.3l3.7-10.3H122l-2.6 7-2.6-7m8.7 6.6c-1 .4-2 .8-2 2a1.5 1.5 0 0 0 1.4 1.7 2.4 2.4 0 0 0 1.6-.6.8.8 0 0 0 1 .6 1.8 1.8 0 0 0 1-.5v-.8a1.4 1.4 0 0 1-.6.4s-.2 0-.2-.3v-3.4a2 2 0 0 0-2.2-2.2 2.3 2.3 0 0 0-2 1v1.4a2.4 2.4 0 0 1 2-1 1 1 0 0 1 1 1v.5zm1 2.3a1.5 1.5 0 0 1-1 .5 1 1 0 0 1-.8-.8c0-.8 1-1.2 2-1.6v2zm9 1.4v-4.2c0-2-1-2.7-2-2.7a2.3 2.3 0 0 0-2 1v-.8h-1v6.7h1v-5a2 2 0 0 1 1.6-1c.8 0 1.3.7 1.3 1.7v4.2h1.2zm3.9-3.7c-1 .4-2 .8-2 2a1.6 1.6 0 0 0 1.4 1.7 2.5 2.5 0 0 0 1.7-.6.8.8 0 0 0 1 .6 1.8 1.8 0 0 0 1-.5v-.8a1.4 1.4 0 0 1-.6.4c-.3 0-.3 0-.3-.3v-3.4a2 2 0 0 0-2.2-2.2 2.4 2.4 0 0 0-2 1v1.4a2.4 2.4 0 0 1 2-1 1 1 0 0 1 1 1v.5zm1 2.3a1.5 1.5 0 0 1-1 .5 1 1 0 0 1-.8-.8c0-.8 1-1.2 2-1.6v2zm8.9 1.4v-4.2c0-2-1-2.7-2-2.7a2.3 2.3 0 0 0-1.8 1v-.8h-1.2v6.7h1.2v-5a2 2 0 0 1 1.5-1c.7 0 1.2.7 1.2 1.7v4.2h1.2zm7.3-6.8H154c-1.6 0-2.6 1-2.6 2.3a2.4 2.4 0 0 0 .4 1.3 2.3 2.3 0 0 0 1 .8 1 1 0 0 0-1 1 1 1 0 0 0 .6 1 1.8 1.8 0 0 0-1.6 1.7c0 1.2 1.2 2 2.8 2 1.8 0 3-.8 3-2a2 2 0 0 0-2-2c-1-.2-1.7-.4-1.7-.8 0-.8 1.5-.3 2.3-1.3a2.6 2.6 0 0 0 .6-1.5 2 2 0 0 0-.7-1.5h1.2v-1zm-3.2 7c.7 0 2 .2 2 1 0 .7-.6 1-1.7 1s-1.7-.3-1.7-1a1.2 1.2 0 0 1 1.4-1zm.3-3.4a1 1 0 0 1-1.2-1.3 1.2 1.2 0 0 1 1.2-1.2 1.2 1.2 0 0 1 1.2 1.2 1.2 1.2 0 0 1-1.3 1.3zm6.1-.5c-1 .4-2 .8-2 2a1.6 1.6 0 0 0 1.4 1.7 2.5 2.5 0 0 0 1.6-.6.8.8 0 0 0 1 .6 1.8 1.8 0 0 0 1-.5v-.8a1.4 1.4 0 0 1-.6.4s-.2 0-.2-.3v-3.4a2 2 0 0 0-2.2-2.2 2.4 2.4 0 0 0-2 1v1.4a2.4 2.4 0 0 1 2-1 1 1 0 0 1 1 1v.5zm1 2.3a1.5 1.5 0 0 1-1 .5 1 1 0 0 1-1-.8c0-.8 1-1.2 2-1.6v2zM172 249a3.5 3.5 0 1 0-3.3-3.5 3.3 3.3 0 0 0 3.2 3.6zm0-5.7a2 2 0 0 1 2 2.2 2 2 0 0 1-2 2.4c-1.3 0-2-1-2-2.5a2 2 0 0 1 2-2.2zm12 5.7v-9h3v-1.3h-7.6v1.4h3.2v9h1.3m4.8-3.8c-1 .4-2 .8-2 2a1.6 1.6 0 0 0 1.4 1.7 2.5 2.5 0 0 0 1.7-.6.8.8 0 0 0 1 .6 1.8 1.8 0 0 0 1-.5v-.8a1.4 1.4 0 0 1-.5.4c-.2 0-.3 0-.3-.3v-3.4a2 2 0 0 0-2.2-2.2 2.4 2.4 0 0 0-2 1v1.4a2.4 2.4 0 0 1 2-1 1 1 0 0 1 1 1v.5zm1 2.3a1.5 1.5 0 0 1-1 .5 1 1 0 0 1-.8-.8c0-.8.8-1.2 1.8-1.6v2zm13.1 1.4v-4.3c0-1.6-.8-2.6-2-2.6a2.6 2.6 0 0 0-2 1.3 2 2 0 0 0-1.8-1.2 2.5 2.5 0 0 0-1.8 1v-.8H194v6.7h1.2v-5a1.7 1.7 0 0 1 1.5-.8c.6 0 1 .5 1 1.6v4h1.3V244a2 2 0 0 1 1.3-.8 1.4 1.4 0 0 1 1.3 1.6v4h1.2zm4.2-3.7c-1 .4-2 .8-2 2a1.5 1.5 0 0 0 1.6 1.7 2.5 2.5 0 0 0 1.6-.6.8.8 0 0 0 1 .6 1.8 1.8 0 0 0 1-.5v-.8a1.4 1.4 0 0 1-.6.4s-.2 0-.2-.3v-3.4a2 2 0 0 0-2.2-2.2 2.4 2.4 0 0 0-2 1v1.4a2.4 2.4 0 0 1 2-1 1 1 0 0 1 1 1v.5zm1.2 2.3a1.5 1.5 0 0 1-1 .5 1 1 0 0 1-1-.8c0-.8 1-1.2 2-1.6v2zm8.2-5.4l-2.7 3.3 3 3.4h1.7l-3.2-3.5 2.6-3.3h-1.4m-3.9-3.4h1.2V249h-1.2z"/><ellipse cx="220.7" cy="240.2" rx=".7" ry=".8" fill="#fff"/><path fill="#fff" d="M220 242.2h1.3v6.7H220zm17.8 6.8v-10.3h-1.2l-3 4.2-3-4.3h-1.3V249h1.3v-8l2.8 4h.3l2.8-4v8h1.3m4.5-3.7c-1 .4-2 .8-2 2a1.6 1.6 0 0 0 1.5 1.7 2.4 2.4 0 0 0 1.6-.6.8.8 0 0 0 1 .6 1.8 1.8 0 0 0 1-.5v-.8a1.4 1.4 0 0 1-.6.4s-.2 0-.2-.3v-3.4a2 2 0 0 0-2.2-2.2 2.4 2.4 0 0 0-2 1v1.4a2.4 2.4 0 0 1 2-1 1 1 0 0 1 1 1v.5zm1 2.3a1.5 1.5 0 0 1-1 .5 1 1 0 0 1-.8-.8c0-.8 1-1.2 2-1.6v2zm8.3-5.4l-2.7 3.3 3 3.4h1.6l-3-3.5 2.4-3.3h-1.4m-3.8-3.4h1.2V249h-1.3zm7.3 4.3v1.4a2.4 2.4 0 0 1 1.8-1 1 1 0 0 1 1 1v.5l-1 .3c-1 .4-2 .8-2 2a1.6 1.6 0 0 0 1.5 1.8 2.5 2.5 0 0 0 1.6-.6.8.8 0 0 0 .8.7 1.8 1.8 0 0 0 1.2-.5v-.8a1.4 1.4 0 0 1-.6.4c-.2 0-.3 0-.3-.3v-3.4a2 2 0 0 0-2-2.2 2.4 2.4 0 0 0-2 1zm3 4.6a1.5 1.5 0 0 1-1 .5 1 1 0 0 1-1-.8c0-.8 1-1.2 2-1.6v2zm9.2 1.4v-7H266v4.8a1.8 1.8 0 0 1-1.4 1 1.2 1.2 0 0 1-1.3-1.5V242H262v4.2c0 1.7 1 2.6 2.2 2.6a2.5 2.5 0 0 0 1.8-1v1h1.2zm3-6.8v6.7h1.2v-3.6c0-1 .6-2 1.5-2a2 2 0 0 1 1 .6l.6-1a2 2 0 0 0-1.4-1c-.6 0-1 .6-1.8 1.7v-1.5h-1.2zm8 3.1c-1 .4-2 .8-2 2a1.6 1.6 0 0 0 1.4 1.7 2.4 2.4 0 0 0 1.6-.6.8.8 0 0 0 1 .6 1.8 1.8 0 0 0 1-.5v-.8a1.4 1.4 0 0 1-.5.4c-.2 0-.3 0-.3-.3v-3.4a2 2 0 0 0-2.2-2.2 2.4 2.4 0 0 0-2 1v1.4a2.4 2.4 0 0 1 2-1 1 1 0 0 1 1 1v.5zm1 2.3a1.5 1.5 0 0 1-1 .5 1 1 0 0 1-.8-.8c0-.8 1-1.2 2-1.6v2zm9.3 1.4v-7h-1.2v4.8a1.8 1.8 0 0 1-1.4 1 1.2 1.2 0 0 1-1.3-1.5V242h-1.2v4.2c0 1.7.8 2.6 2 2.6a2.5 2.5 0 0 0 1.8-1v1h1.2zm-164.8-8.5h3.5v.7h-3.5zm63.3 0h3.5v.7H187zm-92.7-50.3h-7v-5H94v-3h-6.7v-4.6H94v-3h-9.6v18.5h10v-2.8m84.6-12.7v-3h-9.6v18.5h10v-2.8h-7v-5h6.4v-3h-6.5v-4.6h6.8M68 185.3h8.5v7.8h3v-18.3h-3v7.7H68v-7.7h-3V193h3v-7.7m44 8a7.3 7.3 0 0 0 5.7-2 7.8 7.8 0 0 0 1.8-5.5v-11h-3v10.5c0 2-.2 3-.8 3.7a4.5 4.5 0 0 1-3.5 1.3 4 4 0 0 1-3.3-1.4c-.7-.8-1-1.6-1-3.5v-10.8h-3V186a7.2 7.2 0 0 0 2.3 5.5 7 7 0 0 0 4.8 1.8zm27.2-.3v-18.3h-2.8v13l-10.4-13h-2.3V193h2.8v-13l10.2 13h2.5zm26.5-18.3h-3l-4.6 12-4.5-12h-3l7.2 18.5h1zm28.6 18.3h3.5l-.4-.6-2-3.3-1.8-2.8a9.2 9.2 0 0 0-1.5-1.8 4.8 4.8 0 0 0 2.5-4.4 5.2 5.2 0 0 0-1.5-4 5.8 5.8 0 0 0-4-1.3h-4.4V193h3v-7.6h.5c1 0 2 .3 4 4zm-2.8-13a2.5 2.5 0 0 1-.6 1.7 3 3 0 0 1-2.4.8h-1v-5h1c2 0 3 .7 3 2.3zm13.5-2.4a5 5 0 0 1 3.7 1.8l.4.4h.2v-3.7a6.3 6.3 0 0 0-3.8-1.3 5.2 5.2 0 0 0-3.8 1.4 5 5 0 0 0-1.4 3.7c0 2.6 1.8 4 3.6 5.2l.4.2.8.6a8.7 8.7 0 0 1 1 1 2.8 2.8 0 0 1 1 2 2 2 0 0 1-2.2 1.8 5 5 0 0 1-4-2.4l-.5-.7v-.2 4.5a7 7 0 0 0 4.7 1.7 4.7 4.7 0 0 0 3.4-1.5 5.4 5.4 0 0 0 1.4-3.6c0-3-2-4.5-3.6-5.7l-1.2-.7a10.3 10.3 0 0 1-1-.8 2.3 2.3 0 0 1-1-1.8 2 2 0 0 1 2-1.8zm38 15.4h2.8v-9.5l6.3-8.8h-3.5l-4 6-4.3-6h-3.5l6.2 8.8v9.6zm-99-18.3h3V193h-3zm71 0h2.8V193h-3zM54.3 193h3v-15.4h5.5v-3h-14v3h5.5V193m172.7 0h3v-15.4h5.6v-3h-14v3h5.5V193m54.9-8.3h6v-3h-6v-4h6v-3h-9V193h3v-8.3m-15.3 8.6a8.4 8.4 0 0 0 6.5-2.8 10.2 10.2 0 0 0 0-13 8.8 8.8 0 0 0-12.8 0 10 10 0 0 0 0 13 8.4 8.4 0 0 0 6.3 2.8zm-4-14a5.6 5.6 0 0 1 4-1.7c3.4 0 6 2.7 6 6.4a6.7 6.7 0 0 1-1.8 4.6 5.7 5.7 0 0 1-8.4 0 7 7 0 0 1 0-9.2zm-52 21.1h-3.5l-12 31.4h5l3.5-9h10.8l3.6 9h5.3zm-5 17.6c0-.3 3-8.3 3.2-9 0 .7 3.4 8.7 3.5 9h-7zm-15 8.8h-12.3v-26.2h-5v31.2h17.3v-5M57.2 223h11l3.5 8.8h5l-12.4-31.4h-3.5l-12 31.4h5l3.4-9zm5.3-14l3.5 9h-6.8c0-.4 3-8.4 3.3-9zm73.7 20.3v-6h-.2l-.7.5a16 16 0 0 1-9 3.4 10.2 10.2 0 0 1-7.7-3 11 11 0 0 1-3-8 11.4 11.4 0 0 1 3-7.8 10 10 0 0 1 7.4-3.2 16.3 16.3 0 0 1 9 3l.7.5h.2l-.3-6c-4-1.7-6.8-2.5-9.6-2.5-9 0-15.4 7-15.4 16.5a17 17 0 0 0 3.7 10.2 14.3 14.3 0 0 0 11.5 5.3 19 19 0 0 0 10.3-3zm17.1-13.9l12.3-14.8h-6.3l-10.6 12.8v-12.8h-5v31.2h5v-14l13 14h7zm132.7-9.8a14.2 14.2 0 0 0-11.3-5h-11v31.2h11a14.3 14.3 0 0 0 11-4.8 16.5 16.5 0 0 0 4-10.8 17 17 0 0 0-3.6-10.6zM274.3 227h-5.7v-21.5h5.5a10.3 10.3 0 0 1 8 3.2 11 11 0 0 1 2.6 7.5c0 4-2.2 10.7-10.4 10.7zm-182.1 5.2c4 0 7.3-1.2 9.5-3.5s3-5.4 3-9.3v-18.8h-5v18c0 3.3-.3 5-1.5 6.3a7.7 7.7 0 0 1-6 2.2 7 7 0 0 1-5.4-2.4c-1.2-1.3-1.5-2.7-1.5-6v-18.2h-5V220c0 3.8 1.3 7 3.7 9.3a12 12 0 0 0 8.2 3zm158.5-9.2L233 200.5h-4v31.2h5v-22.2l17.3 22.2h4v-31.2h-4.7V223zm-192 49.3l-7.6-9h-2v12.8h2.4v-9l7.6 9h2v-12.6h-2.3v9m17.7-1.9H82v-2h-5.5v-3.3h5.8v-2H74v12.8h8.4v-1.8h-6v-3.6m31.6.6l-3.4-8h-2l-3.4 8-3.2-8h-2.5l5.2 13h.8l4-9.5 4 9.5h1l5.2-13h-2.5l-3.2 8m43-7.9h-11.2v2h7l-7.5 10.7h11.8v-1.8h-7.4l7.4-10.8m14.4 7.1h5.5v-2h-5.5v-3.3h5.8v-2H163v12.8h8.4v-1.8h-6v-3.6m22.3-7.3l-5.2 12.7h2.6l1.3-3h5.7l1.3 3h2.6l-5.7-12.6h-2.5zm-.7 7.8l2-5 2 5h-4zm23-7.8h-2.5V276h8.6v-1.8h-6v-10.8m21.9 0l-5.4 12.7h2.6l1.2-3h5.7l1.4 3h2.6l-5.6-12.6h-2.6zm-.8 7.8l2-5 2 5h-4zm30.2 1.1l-7.6-9h-2.2v12.8h2.4v-9l7.6 9h2.2v-12.6h-2.4v9m24.2-8.3a7.5 7.5 0 0 0-3.6-.8h-5.3V276h5.2a8 8 0 0 0 3.5-.7 5.8 5.8 0 0 0 2.5-2.2 6.3 6.3 0 0 0 1-3.2 6.4 6.4 0 0 0-1-3.3 6 6 0 0 0-2.4-2.3zm-.6 8.8a4.5 4.5 0 0 1-3.3 1.2H279v-9h2.6a4.6 4.6 0 0 1 3.4 1.3 4.8 4.8 0 0 1 0 6.5zM49 257h240.4v1.3H49zm71.7-208.5v49c0 11.6 8.6 45 48 61.6l.6.3.7-.2c39.3-16.4 48-50 48-61.5v-49h-97.3z"/><path d="M131 81l-.2-.2a14.6 14.6 0 0 0-7.4-2 4 4 0 0 0-.4 0h-.2v18.7c0 .4 1.3 40.5 46.5 59.5 45.2-19 46.5-59 46.5-59.5V79h-.6a14.6 14.6 0 0 0-7.4 2 15.8 15.8 0 0 1-15.8 0 14.8 14.8 0 0 0-14.8 0 15.8 15.8 0 0 1-15.8 0v-.2a14.8 14.8 0 0 0-14.8 0h-.2a15.8 15.8 0 0 1-15.3.2z" fill="#00467f"/><path d="M136.4 57.2a6.7 6.7 0 0 1 5-2.3c7.2-.3 10.8 5 10.7 9.4 0 5-3.8 6-4.3 6.3a5 5 0 0 0 .7 2.5.4.4 0 0 1 0 .5 3.4 3.4 0 0 1 0 .4.5.5 0 0 0 0 .4 1.6 1.6 0 0 1-.4 1.2 5.4 5.4 0 0 0 0 2c0 .2 0 .2 0 0a3.3 3.3 0 0 1-1-1.7 4.7 4.7 0 0 0-2.2 2.2s-.2.2-.2 0a3 3 0 0 1 1.2-2.6 2.6 2.6 0 0 0-2 .4s-.2 0 0 0c0 0 .4-1 2.2-1.3a8.8 8.8 0 0 0 .6-1.2 6.6 6.6 0 0 0-.8-2.4 5 5 0 0 0-2.4 1 .4.4 0 0 0-.2.3v.4a.7.7 0 0 1-.5.6l-2.4 1a3.5 3.5 0 0 0-1.2 1 2.6 2.6 0 0 1-1 .8 1.6 1.6 0 0 0-.7.5 4.3 4.3 0 0 1-.6.6 3.4 3.4 0 0 0-1 1.3s0 .2 0 0v-.6a3.2 3.2 0 0 1 .8-1.5.7.7 0 0 1-.2 0 10.3 10.3 0 0 0-3.5.3s-.2 0 0 0c0-.3.5-1.4 3-1.4a2.4 2.4 0 0 0-1.7-.7V74a2.6 2.6 0 0 1 2.6.5 6 6 0 0 1 1.4-.4 22.7 22.7 0 0 1 2.4-2 2 2 0 0 1 0-.6 5.5 5.5 0 0 1-.8-3 6.3 6.3 0 0 1-3.7-2.5 5.5 5.5 0 0 1-4.3-3.3c-3.6 2.7-6 7.4-6.2 7.6h-.2a3.5 3.5 0 0 1-.3-2.2 30.2 30.2 0 0 1 4.2-7c-.7-4 3-5.2 4.5-5.2a3.7 3.7 0 0 1 2.7 1.3z" fill="#00467f"/><path d="M143.6 57.8a2 2 0 0 1 1.3-.6 4.4 4.4 0 0 0-3.6 0 3.6 3.6 0 0 1 1-1 4.3 4.3 0 0 0-3 1 3 3 0 0 1 .7-1c-2 0-3.8 2.8-3.8 2.8a2.5 2.5 0 0 0-2.4-2c-1.4-.2-4.7 1.8-3.4 4.4-.6 1-2.5 2.7-4 6v.2c1.4-2 3.5-4.7 5.6-6 .2.2 1.4 3.4 4.3 3.6.3.2 1.7 2.6 4.2 2.3a11 11 0 0 0 .5 3.3 9.6 9.6 0 0 1 2.8-1.6 9.5 9.5 0 0 1 .8-2 4.7 4.7 0 0 0 3.8-4.4c0-2.5-2.2-5.3-4.8-5zm-12 3a.6.6 0 1 1 .5-.5.6.6 0 0 1-.5.6z" fill="#fff"/><path d="M166.8 57.2a6.7 6.7 0 0 1 5-2.3c7.2-.3 11 5 10.7 9.4 0 5-4 6-4.4 6.3a5 5 0 0 0 1 2.5.4.4 0 0 1 0 .5 3.2 3.2 0 0 1-.3.4.5.5 0 0 0 0 .4 1.6 1.6 0 0 1-.2 1.2 5.4 5.4 0 0 0 0 2c0 .2 0 .2 0 0a3.2 3.2 0 0 1-1-1.7 4.6 4.6 0 0 0-2.2 2.2s-.3.2-.3 0a3 3 0 0 1 1.2-2.6 2.6 2.6 0 0 0-2 .4s-.2 0 0 0c0 0 .4-1 2.3-1.3a9.3 9.3 0 0 0 .6-1.2 6.5 6.5 0 0 0-.8-2.4 5 5 0 0 0-2.3 1 .4.4 0 0 0-.3.3v.4a.7.7 0 0 1-.5.6l-2.4 1a3.4 3.4 0 0 0-1.2 1 2.6 2.6 0 0 1-1 .8 1.6 1.6 0 0 0-.8.5 4.2 4.2 0 0 1-.6.6 3.4 3.4 0 0 0-1 1.3s0 .2 0 0v-.6a3.2 3.2 0 0 1 .8-1.5.7.7 0 0 1-.2 0 10.3 10.3 0 0 0-3.5.3s-.2 0 0 0c0-.3.5-1.4 3-1.4a2.4 2.4 0 0 0-1.8-.7V74a2.6 2.6 0 0 1 2.5.5 6 6 0 0 1 1.4-.4 23.6 23.6 0 0 1 2.4-2 2 2 0 0 1 0-.6 5.6 5.6 0 0 1-.8-3 6.3 6.3 0 0 1-3.7-2.5 5.5 5.5 0 0 1-4-3.3c-3.8 2.7-6.2 7.4-6.3 7.6h-.2a3.6 3.6 0 0 1-.4-2.2 30.2 30.2 0 0 1 4.3-7c-.7-4 3-5.2 4.4-5.2A3.7 3.7 0 0 1 167 57z" fill="#00467f"/><path d="M174 57.8a2.2 2.2 0 0 1 1.3-.6 4.4 4.4 0 0 0-3.5 0 3.6 3.6 0 0 1 1-1 4.3 4.3 0 0 0-3 1 3 3 0 0 1 .8-1c-2.3 0-4 2.8-4 2.8a2.5 2.5 0 0 0-2.4-2c-1.4-.2-4.7 1.8-3.4 4.4-.6 1-2.5 2.7-4 6a1 1 0 0 0 0 .2c1.4-2 3.5-4.7 5.6-6 .2.2 1.5 3.4 4.3 3.6.3.2 1.7 2.6 4.2 2.3a11 11 0 0 0 .4 3.3 9.5 9.5 0 0 1 3-1.5 9.7 9.7 0 0 1 .8-2A4.7 4.7 0 0 0 179 63c0-2.7-2.4-5.5-5-5.2zm-12 3a.6.6 0 1 1 .5-.5.6.6 0 0 1-.6.6z" fill="#fff"/><path d="M197 57.2a6.7 6.7 0 0 1 5-2.3c7.3-.3 11 5 10.8 9.4-.2 5-4 6-4.4 6.3a5 5 0 0 0 .8 2.5.4.4 0 0 1 0 .5 3.2 3.2 0 0 1-.2.4.5.5 0 0 0 0 .4 1.6 1.6 0 0 1-.3 1.2 5.5 5.5 0 0 0 .2 2c0 .2-.2.2-.3 0a3.2 3.2 0 0 1-1-1.7 4.7 4.7 0 0 0-2.2 2.2s-.2.2-.2 0a3 3 0 0 1 1.2-2.6 2.6 2.6 0 0 0-2 .4s-.2 0 0 0c0 0 .3-1 2.2-1.3a9 9 0 0 0 .6-1.2 6.4 6.4 0 0 0-1-2.4 5 5 0 0 0-2.2 1 .4.4 0 0 0 0 .3v.4a.7.7 0 0 1-.6.6l-2.4 1a3.5 3.5 0 0 0-1.2 1 2.7 2.7 0 0 1-1 .8 1.6 1.6 0 0 0-.8.5 4.3 4.3 0 0 1-.6.6 3.4 3.4 0 0 0-1 1.3s0 .2 0 0a5.8 5.8 0 0 1 0-.6 3 3 0 0 1 .8-1.5.7.7 0 0 1-.2 0 10.3 10.3 0 0 0-3.5.3s-.2 0 0 0c0-.3.5-1.4 3-1.4a2.4 2.4 0 0 0-1.8-.7V74a2.6 2.6 0 0 1 2.5.5 6 6 0 0 1 1.4-.4 22.6 22.6 0 0 1 2.4-2 2 2 0 0 1 0-.6 5.6 5.6 0 0 1-.8-3 6.3 6.3 0 0 1-3.7-2.5 5.5 5.5 0 0 1-4-3.3c-3.8 2.7-6.2 7.4-6.3 7.6h-.2a3.6 3.6 0 0 1-.3-2.2 30 30 0 0 1 4.2-7c-.8-4 3-5.2 4.4-5.2A3.6 3.6 0 0 1 197 57z" fill="#00467f"/><path d="M204.3 57.8a2 2 0 0 1 1.3-.6 4.4 4.4 0 0 0-3.5 0 3.6 3.6 0 0 1 1-1 4.3 4.3 0 0 0-3 1 2.8 2.8 0 0 1 1-1c-2.4 0-4 2.8-4 2.8a2.5 2.5 0 0 0-2.5-2c-1.4-.2-4.6 1.8-3.4 4.4-.5 1-2.4 2.7-4 6v.2c1.5-2 3.6-4.7 5.7-6 .2.2 1.5 3.4 4.3 3.6.3.2 1.7 2.6 4.2 2.3a10.7 10.7 0 0 0 .5 3.3 9.6 9.6 0 0 1 3-1.5 9.4 9.4 0 0 1 .8-2 4.7 4.7 0 0 0 3.7-4.4c0-2.7-2.3-5.5-5-5.2zm-12 3a.6.6 0 1 1 .5-.5.6.6 0 0 1-.6.6zM173 127.5l-.6.4.8.3a1.5 1.5 0 0 1-.7 2.8H166a1.5 1.5 0 0 1-.6-2.7l.8-.4-.7-.5a9 9 0 0 0-5-1.6 9 9 0 0 0-5 1.4 9.6 9.6 0 0 1-6 1.6 12.5 12.5 0 0 1-8.7-3.2H139a1.2 1.2 0 0 1-1 .5 1 1 0 1 1 0-2.2 1.2 1.2 0 0 1 1 .6v.2h2v-2.4h-2v.2a1.2 1.2 0 0 1-1 .4 1 1 0 1 1 0-2 1.2 1.2 0 0 1 1 .3v.2h2v-2.3h-2v.2a1.2 1.2 0 0 1-1 .4 1 1 0 1 1 0-2.2 1.2 1.2 0 0 1 1 .5v.2h2V116h-2a1.2 1.2 0 0 1-1 .5 1 1 0 1 1 0-2 1.2 1.2 0 0 1 1 .3v.2h2v-2.3h-2a1.2 1.2 0 0 1-1 .6 1 1 0 1 1 0-2.2 1.2 1.2 0 0 1 1 .5v.2h2v-2.3h-2v.2a1.2 1.2 0 0 1-1 .4 1 1 0 1 1 0-2.2 1.2 1.2 0 0 1 1 .5v.2h2V106h-2v.3a1.2 1.2 0 0 1-1 .4 1 1 0 1 1 0-2 1.2 1.2 0 0 1 1 .3v.2h1.6l1.6-.8v21l.2.3c4.4 2.8 8.7 3 12.6.8 4.2-2.3 10-2.4 13.4 2.5h-1.7a.5.5 0 0 0 0 1h5a.5.5 0 0 0 0-1h-1.5c3.5-5 9.3-4.5 13.4-2.5 3.6 2 7.8 1.6 12.5-.7l.4-.5v-21l1.6 1h1.4l.2-.3a1.2 1.2 0 0 1 1-.4 1 1 0 1 1 0 2 1.2 1.2 0 0 1-1-.3l-.2-.2h-1.8v2.4h2a1.2 1.2 0 0 1 1-.6 1 1 0 1 1 0 2.2 1.2 1.2 0 0 1-1-.4l-.2-.2h-1.8v2.3h1.8l.2-.2a1.2 1.2 0 0 1 1-.4 1 1 0 1 1 0 2.3 1.2 1.2 0 0 1-1-.5h-2v2.2h1.8l.2-.2a1.2 1.2 0 0 1 1-.4 1 1 0 1 1 0 2 1.2 1.2 0 0 1-1-.3h-2v2.3h1.8l.2-.2a1.2 1.2 0 0 1 1-.4 1 1 0 1 1 0 2.2 1.2 1.2 0 0 1-1-.4v-.2h-2v2.3h2v-.2a1.2 1.2 0 0 1 1-.4 1 1 0 1 1 0 2 1.2 1.2 0 0 1-1-.4h-2v2.2h2v-.2a1.2 1.2 0 0 1 1-.4 1 1 0 1 1 0 2 1.2 1.2 0 0 1-1-.3v-.3H198l-.2.2a12.6 12.6 0 0 1-8.7 3 9.7 9.7 0 0 1-6-1.5 9 9 0 0 0-10 0z" fill="#fff"/><path d="M144.5 124.6c3.3 1.7 6 2.2 10.6-.3a11.8 11.8 0 0 1 13.8 2v1.6c-3.8-5-10-4.8-14.3-2.4-3.5 2-7.4 1.8-11.3-.6v-21l1-.6v21z" fill="#fff"/><path d="M145.3 123.8v-21a14.7 14.7 0 0 0 10-1c4.5-2 9-1.3 13.5 1.7V125a13 13 0 0 0-8.3-3 12.5 12.5 0 0 0-5.8 1.4c-4.3 2.2-6.6 2-9.4.4zm38.1.5c4.8 2.5 7.4 2 10.7.3h.3v-21.3l1 .6v21c-4.2 2-8 2.3-11.3.7-4.3-2.2-10.3-2.8-14.2 2.2v-1.6a11.8 11.8 0 0 1 13.6-2z" fill="#fff"/><path d="M169.8 125v-21.4c4.5-3 9-3.7 13.4-1.8a14.7 14.7 0 0 0 10 1v21c-2.7 1.5-5 1.8-9.3-.4a12.7 12.7 0 0 0-14.2 1.6zm23.8-26l-5.7-4.3L182 99l2.2-6.8-6-4.3h7.3l2.2-7 2 7h7.3l-6 4.2 2.3 6.8m-36.9.1l-5.7-4.2L145 99l2.2-6.8-6-4.3h7.3l2.2-7 2.2 7h7.2l-6 4.2 2.2 7m7.3 53.6l2.2-6.8-6-4.4h7.3l2.3-7 2.2 7h7.3l-6 4.3 2.2 6.7-5.7-4.3-5.7 4.3" fill="#fff"/></symbol><symbol viewBox="0 0 338.24 324.79" id="logo-small"><path fill="#00467f" d="M0 48.4L48.4 0h289.8v276.3l-48.5 48.5H.2L0 48.4"/><path fill="#fff" d="M94.3 190.2h-7v-5H94v-3h-6.7v-4.6H94v-3h-9.6v18.5h10v-2.8m84.6-12.7v-3h-9.6v18.5h10v-2.8h-7v-5h6.4v-3h-6.5v-4.6h6.8M68 185.3h8.5v7.8h3v-18.3h-3v7.7H68v-7.7h-3V193h3v-7.7m44 8a7.3 7.3 0 0 0 5.7-2 7.8 7.8 0 0 0 1.8-5.5v-11h-3v10.5c0 2-.2 3-.8 3.7a4.5 4.5 0 0 1-3.6 1.3 4 4 0 0 1-3-1.4c-.8-.8-1-1.6-1-3.5v-10.8h-2.8V186a7.2 7.2 0 0 0 2 5.5 7 7 0 0 0 5 1.8zm27.2-.3v-18.3h-2.8v13l-10.4-13h-2.3V193h2.8v-13l10.2 13h2.5zm26.5-18.3h-3l-4.5 12-4.6-12h-3l7 18.5h1zm28.6 18.3h3.5l-.4-.6-2-3.3-1.8-2.8a9.2 9.2 0 0 0-1.5-1.8 4.8 4.8 0 0 0 2.5-4.4 5.2 5.2 0 0 0-1.5-4 5.8 5.8 0 0 0-4-1.3h-4.4V193h3v-7.6h.6c1 0 1.8.3 4 4zm-2.8-13a2.5 2.5 0 0 1-.6 1.7 3 3 0 0 1-2.4.8h-1v-5h1c2 0 3 .7 3 2.3zm13.7-2.4a5 5 0 0 1 3.5 1.8l.4.4h.2v-3.7a6.3 6.3 0 0 0-3.8-1.3 5.2 5.2 0 0 0-3.8 1.4 5 5 0 0 0-1.4 3.7c0 2.6 1.8 4 3.6 5.2l.4.2 1 .6a8.7 8.7 0 0 1 1 1 2.8 2.8 0 0 1 1 2 2 2 0 0 1-2.4 1.8 5 5 0 0 1-4-2.5l-.4-.5v-.2 4.5a7 7 0 0 0 4.6 1.7 4.7 4.7 0 0 0 3.5-1.5 5.4 5.4 0 0 0 1.3-3.6c0-3-1.8-4.5-3.6-5.7l-1.2-.8a10.3 10.3 0 0 1-1-.8 2.3 2.3 0 0 1-1-2 2 2 0 0 1 2.2-1.6zM243 193h2.8v-9.5l6.3-8.8h-3.5l-4 6-4.3-6h-3.5l6.2 8.8v9.6zm-99-18.3h3V193h-3zm71 0h2.8V193h-3zM54.3 193h3v-15.4h5.5v-3h-14v3h5.5V193m172.7 0h3v-15.4h5.6v-3h-14v3h5.5V193m54.9-8.3h6v-3h-6v-4h6v-3h-9V193h3v-8.3m-15.3 8.6a8.4 8.4 0 0 0 6.5-2.8 10.2 10.2 0 0 0 0-13 8.8 8.8 0 0 0-12.8 0 10 10 0 0 0 0 13 8.4 8.4 0 0 0 6.3 2.8zm-4-14a5.6 5.6 0 0 1 4-1.7c3.4 0 6 2.7 6 6.4a6.7 6.7 0 0 1-1.8 4.6 5.7 5.7 0 0 1-8.4 0 7 7 0 0 1 0-9.2zm-52 26.7h-3.5l-12 31.4h5l3.4-9h11l3.5 9h5.2zm-5 17.5c0-.3 3-8.3 3.2-9 0 .6 3.4 8.7 3.5 9h-7zm-15 8.9h-12.3V206h-5v31.3h17.3v-5m-133.5-3.9h11l3.5 9h5l-12.4-31.5h-3.5l-12 31.4h5l3.4-9zm5.3-13.8l3.5 9h-6.8c0-.4 3-8.5 3.3-9zm73.7 20.4v-6.2h-.2l-.7.6a16 16 0 0 1-9.2 3.3 10.2 10.2 0 0 1-7.4-3 11 11 0 0 1-3-8 11.4 11.4 0 0 1 3-7.8 10 10 0 0 1 7.4-3.2 16.3 16.3 0 0 1 9 3l.7.4.2.2-.3-6c-4-2-6.8-2.7-9.7-2.7-9 0-15.4 7-15.4 16.5a17 17 0 0 0 3.6 10.2 14.3 14.3 0 0 0 11.6 5.4 19 19 0 0 0 10.4-3zm17.1-14l12.3-15h-6.3l-10.6 13v-13h-5v31.3h5v-14l13 14h7zm132.7-9.8a14.2 14.2 0 0 0-11.3-5h-11v31h11a14.3 14.3 0 0 0 11-4.7 16.5 16.5 0 0 0 4-10.8 17 17 0 0 0-3.6-10.5zm-11.8 21.2h-5.7V211h5.5a10.3 10.3 0 0 1 8 3 11 11 0 0 1 2.5 7.7c0 4-2 10.7-10.3 10.7zm-182 5.4c4 0 7.2-1.2 9.4-3.6s3.2-5.4 3.2-9.2v-19h-5v18.2c0 3.2-.5 5-1.6 6.2a7.7 7.7 0 0 1-6 2.3 7 7 0 0 1-5.5-2.4c-1-1.3-1.5-2.6-1.5-5.8V206h-5v19.4c0 4 1.3 7.2 3.7 9.4a12 12 0 0 0 8.2 3zm158.5-9.4L233 206h-3.8v31.3h4.7V215l17.3 22.3h4v-31.2h-4.6v22.5zm-192 43.9l-7.6-9h-2v12.8h2.4v-9l7.6 9h2v-12.6h-2.3v9m17.7-1.9H82v-2h-5.5v-3.3h5.8v-2H74v12.8h8.4v-1.8h-6v-3.6m31.6.6l-3.4-8h-2l-3.4 8-3.2-8h-2.5l5.2 13h.8l4-9.5 4 9.5h1l5.2-13h-2.5l-3.2 8m43-7.9h-11.2v2h7l-7.5 10.7h11.8v-1.8h-7.4l7.4-10.8m14.4 7.1h5.5v-2h-5.5v-3.3h5.8v-2H163v12.8h8.4v-1.8h-6v-3.6m22.3-7.3l-5.2 12.7h2.6l1.3-3h5.7l1.3 3h2.6l-5.8-12.6h-2.5zm-.6 7.8l2-5 2.2 5h-4zm22.9-7.8h-2.5V276h8.6v-1.8h-6v-10.8m21.9 0l-5.4 12.7h2.6l1.2-3h5.7l1.4 3h2.6l-5.7-12.6h-2.5zm-.8 7.8l2-5 2 5h-4zm30.2 1.1l-7.6-9h-2.2v12.8h2.4v-9l7.6 9h2.2v-12.6h-2.4v9m24.1-8.3a7.5 7.5 0 0 0-3.5-.8h-5.3V276h5.2a8 8 0 0 0 3.5-.7 5.8 5.8 0 0 0 2.4-2.2 6.3 6.3 0 0 0 .8-3.2 6.4 6.4 0 0 0-1-3.3 6 6 0 0 0-2.3-2.3zm-.5 8.8a4.5 4.5 0 0 1-3.2 1.2h-2.6v-9h2.5a4.6 4.6 0 0 1 3.4 1.3 4.8 4.8 0 0 1 0 6.5zM49 250h240.4v1.3H49zm71.7-201.5v49c0 11.6 8.6 45 48 61.6l.6.3.6-.2c39.3-16.4 48-50 48-61.5v-49h-97.3z"/><path d="M131.2 81l-.3-.2a14.6 14.6 0 0 0-7.5-2 4 4 0 0 0-.5 0h-.2v18.7c0 .4 1.3 40.5 46.5 59.5 45.3-19 46.5-59 46.5-59.5V79h-.6a14.6 14.6 0 0 0-7.4 2 15.8 15.8 0 0 1-15.8 0 14.8 14.8 0 0 0-14.8 0 15.8 15.8 0 0 1-15.8 0v-.2a14.8 14.8 0 0 0-14.8 0h-.2a15.8 15.8 0 0 1-15.2.2z" fill="#00467f"/><path d="M136.4 57.2a6.7 6.7 0 0 1 5-2.3c7.2-.3 10.8 5 10.7 9.4 0 5-4 6-4.4 6.3a5 5 0 0 0 .8 2.5.4.4 0 0 1 0 .5 3.4 3.4 0 0 1 0 .4.5.5 0 0 0 0 .4 1.6 1.6 0 0 1-.4 1.2 5.4 5.4 0 0 0 0 2c0 .2 0 .2 0 0a3.3 3.3 0 0 1-1-1.7 4.7 4.7 0 0 0-2.2 2.2s-.2.2-.3 0a3 3 0 0 1 1.3-2.6 2.6 2.6 0 0 0-2 .4s-.2 0 0 0c0 0 .4-1 2.2-1.3a8.8 8.8 0 0 0 .6-1.2 6.6 6.6 0 0 0-.8-2.4 5 5 0 0 0-2.4 1 .4.4 0 0 0-.2.3v.4a.7.7 0 0 1-.5.6l-2.4 1a3.5 3.5 0 0 0-1.2 1 2.6 2.6 0 0 1-1 .8 1.6 1.6 0 0 0-.7.5 4.3 4.3 0 0 1-.6.6 3.4 3.4 0 0 0-1 1.3s0 .2 0 0v-.6a3.2 3.2 0 0 1 .8-1.5.7.7 0 0 1-.2 0 10.3 10.3 0 0 0-3.5.3s-.2 0 0 0c0-.3.5-1.4 3-1.4a2.4 2.4 0 0 0-1.7-.7V74a2.6 2.6 0 0 1 2.5.5 6 6 0 0 1 1.4-.4 22.7 22.7 0 0 1 2.4-2 2 2 0 0 1 0-.6 5.5 5.5 0 0 1-1-3A6.3 6.3 0 0 1 136 66a5.5 5.5 0 0 1-4-3.3c-3.8 2.7-6 7.4-6.3 7.6h-.2a3.5 3.5 0 0 1-.3-2.2 30.2 30.2 0 0 1 4.2-7c-.7-4 3-5.2 4.5-5.2a3.7 3.7 0 0 1 2.7 1.3z" fill="#00467f"/><path d="M143.6 57.8a2 2 0 0 1 1.3-.6 4.4 4.4 0 0 0-3.6 0 3.6 3.6 0 0 1 1-1 4.3 4.3 0 0 0-3 1 3 3 0 0 1 .7-1c-2 0-4 2.8-4 2.8a2.5 2.5 0 0 0-2.2-2c-1.5-.2-4.7 1.8-3.4 4.4-.6 1-2.5 2.7-4 6v.2c1.3-2 3.4-4.7 5.6-6 .2.2 1.4 3.4 4.3 3.6.3.2 1.7 2.6 4.2 2.3a11 11 0 0 0 .5 3.3 9.6 9.6 0 0 1 3-1.5 9.5 9.5 0 0 1 .7-2 4.7 4.7 0 0 0 3.8-4.4c0-2.7-2.3-5.5-5-5.2zm-12 3a.6.6 0 1 1 .5-.5.6.6 0 0 1-.5.6z" fill="#fff"/><path d="M166.8 57.2a6.7 6.7 0 0 1 5-2.3c7.2-.3 11 5 10.7 9.4 0 5-4 6-4.4 6.3a5 5 0 0 0 1 2.5.4.4 0 0 1 0 .5 3.2 3.2 0 0 1-.3.4.5.5 0 0 0 0 .4 1.6 1.6 0 0 1-.2 1.2 5.4 5.4 0 0 0 0 2c0 .2 0 .2 0 0a3.2 3.2 0 0 1-1-1.7 4.6 4.6 0 0 0-2.3 2.3s-.3.2-.3 0a3 3 0 0 1 1.2-2.6 2.6 2.6 0 0 0-2 .4s-.2.2 0 0c0 0 .4-1 2.2-1.3a9.3 9.3 0 0 0 .6-1 6.5 6.5 0 0 0-.8-2.5 5 5 0 0 0-2.4.8.4.4 0 0 0-.2.4v.4a.7.7 0 0 1-.5.5l-2.3 1a3.4 3.4 0 0 0-1.2 1 2.6 2.6 0 0 1-1 1 1.6 1.6 0 0 0-.8.3 4.2 4.2 0 0 1-.6.5 3.4 3.4 0 0 0-.8 1.4s0 .2 0 0v-.6a3.2 3.2 0 0 1 .7-1.6.7.7 0 0 1-.3 0 10.3 10.3 0 0 0-3.5.4c0-.4.5-1.4 3-1.5a2.4 2.4 0 0 0-1.7-.7c-.2 0 0 0 0 0a2.6 2.6 0 0 1 2.4.2 6 6 0 0 1 1.3-.4 23.6 23.6 0 0 1 2.5-2 2 2 0 0 1 0-.5 5.6 5.6 0 0 1-1-3.2 6.3 6.3 0 0 1-3.6-2.4 5.5 5.5 0 0 1-4-3.2c-3.7 2.7-6 7.4-6.3 7.6h-.3a3.6 3.6 0 0 1-.3-2.2 30.2 30.2 0 0 1 4.3-7c-.7-4 3-5.3 4.4-5.3a3.7 3.7 0 0 1 3 .9z" fill="#00467f"/><path d="M174 57.8a2.2 2.2 0 0 1 1.4-.6 4.4 4.4 0 0 0-3.6 0 3.6 3.6 0 0 1 1-1 4.3 4.3 0 0 0-3 1 3 3 0 0 1 .8-1c-2.3 0-4 2.8-4 2.8a2.5 2.5 0 0 0-2.4-2c-1.5-.2-4.7 1.8-3.4 4.4-.6 1-2.5 2.7-4 6a1 1 0 0 0 0 .2c1.3-2 3.4-4.7 5.6-6 .2 0 1.4 3.3 4.3 3.5.3.4 1.7 2.7 4.2 2.5a11 11 0 0 0 .4 3.3 9.5 9.5 0 0 1 3-1.5 9.7 9.7 0 0 1 .7-2 4.7 4.7 0 0 0 4-4.4c0-2.7-2.4-5.5-5-5.2zm-12 3a.6.6 0 1 1 .5-.5.6.6 0 0 1-.6.6z" fill="#fff"/><path d="M197 57.2a6.7 6.7 0 0 1 5-2.3c7.3-.3 11 5 10.8 9.4-.2 5-4 6-4.4 6.3a5 5 0 0 0 .7 2.5.4.4 0 0 1 .2.5 3.2 3.2 0 0 1-.2.4.5.5 0 0 0 0 .4 1.6 1.6 0 0 1-.3 1.2 5.5 5.5 0 0 0 .2 2c-.2.2-.2.2-.3 0a3.2 3.2 0 0 1-1-1.7 4.7 4.7 0 0 0-2.2 2.2s-.2.2-.2 0a3 3 0 0 1 1.2-2.6 2.6 2.6 0 0 0-2 .4s-.3 0 0 0c0 0 .3-1 2.2-1.3a9 9 0 0 0 .6-1.2 6.4 6.4 0 0 0-1-2.4 5 5 0 0 0-2.2 1 .4.4 0 0 0 0 .3v.4a.7.7 0 0 1-.6.6l-2.4 1a3.5 3.5 0 0 0-1.2 1 2.7 2.7 0 0 1-1 .8 1.6 1.6 0 0 0-.8.5 4.3 4.3 0 0 1-.6.6 3.4 3.4 0 0 0-1 1.3s0 .2 0 0a5.8 5.8 0 0 1 0-.6 3 3 0 0 1 .8-1.5.7.7 0 0 1-.3 0 10.3 10.3 0 0 0-3.5.3s-.2 0 0 0c0-.3.5-1.4 3-1.4a2.4 2.4 0 0 0-1.8-.7V74a2.6 2.6 0 0 1 2.5.5 6 6 0 0 1 1.4-.4 22.6 22.6 0 0 1 2.4-2 2 2 0 0 1 0-.6 5.6 5.6 0 0 1-.8-3 6.3 6.3 0 0 1-3.7-2.5 5.5 5.5 0 0 1-4-3.3c-3.8 2.7-6.2 7.4-6.3 7.6h-.2a3.6 3.6 0 0 1-.4-2.2 30 30 0 0 1 4.3-7c-.8-4 3-5.2 4.3-5.2A3.6 3.6 0 0 1 197 57z" fill="#00467f"/><path d="M204.3 57.8a2 2 0 0 1 1.3-.6 4.4 4.4 0 0 0-3.5 0 3.6 3.6 0 0 1 1-1 4.3 4.3 0 0 0-3 1 2.8 2.8 0 0 1 1-1c-2.4 0-4 2.8-4 2.8a2.5 2.5 0 0 0-2.5-2c-1.4-.2-4.6 1.8-3.4 4.4-.5 1-2.4 2.7-4 6v.2c1.5-2 3.6-4.7 5.7-6 .2.2 1.5 3.4 4.3 3.6.3.2 1.7 2.6 4.2 2.3a10.7 10.7 0 0 0 .5 3.3 9.6 9.6 0 0 1 3-1.5 9.4 9.4 0 0 1 .8-2 4.7 4.7 0 0 0 3.7-4.4c0-2.7-2.3-5.5-5-5.2zm-12 3a.6.6 0 1 1 .5-.5.6.6 0 0 1-.6.6zm-19.1 66.7l-.7.4.7.3a1.5 1.5 0 0 1-.7 2.8h-6.3a1.5 1.5 0 0 1-.7-2.7l.7-.4-.7-.5a9 9 0 0 0-5-1.6 9 9 0 0 0-5 1.4 9.6 9.6 0 0 1-6 1.6 12.5 12.5 0 0 1-8.6-3.2H139a1.2 1.2 0 0 1-1 .5 1 1 0 1 1 0-2.2 1.2 1.2 0 0 1 1 .6v.2h2v-2.4h-1.8l-.2.2a1.2 1.2 0 0 1-1 .4 1 1 0 1 1 0-2 1.2 1.2 0 0 1 1 .3l.2.2h2l-.2-2.3h-1.8l-.2.2a1.2 1.2 0 0 1-1 .4 1 1 0 1 1 0-2.2 1.2 1.2 0 0 1 1 .5l.2.2h1.8V116h-2a1.2 1.2 0 0 1-1 .5 1 1 0 1 1 0-2 1.2 1.2 0 0 1 1 .3l.2.2h1.8v-2.3h-1.8l-.2.2a1.2 1.2 0 0 1-1 .3 1 1 0 1 1 0-2.2 1.2 1.2 0 0 1 1 .6h2v-2.2h-1.8l-.2.2a1.2 1.2 0 0 1-1 .4 1 1 0 1 1 0-2.2 1.2 1.2 0 0 1 1 .5h2v-2.2h-1.8l-.2.3a1.2 1.2 0 0 1-1 .4 1 1 0 1 1 0-2 1.2 1.2 0 0 1 1 .3l.2.2h1.5l1.5-.8v21l.3.3c4.3 2.7 8.7 3 12.6.8 4.2-2.3 10-2.4 13.4 2.5h-1.6a.5.5 0 0 0 0 1h5a.5.5 0 0 0 0-1h-1.6c3.5-5 9.3-4.5 13.4-2.5 3.6 1.8 7.8 1.6 12.5-.8l.4-.4v-21l1.6 1h1.4l.2-.3a1.2 1.2 0 0 1 1-.4 1 1 0 1 1 0 2 1.2 1.2 0 0 1-1-.3l-.2-.2h-1.8v2.4h2a1.2 1.2 0 0 1 1-.6 1 1 0 1 1 0 2.2 1.2 1.2 0 0 1-1-.4l-.2-.2h-1.8v2.3h1.8l.2-.2a1.2 1.2 0 0 1 1-.4 1 1 0 1 1 0 2.3 1.2 1.2 0 0 1-1-.5h-2v2.2h1.8l.2-.2a1.2 1.2 0 0 1 1-.4 1 1 0 1 1 0 2 1.2 1.2 0 0 1-1-.3h-2v2.3h1.8l.2-.2a1.2 1.2 0 0 1 1-.4 1 1 0 1 1 0 2.2 1.2 1.2 0 0 1-1-.4v-.2h-2v2.3h2v-.2a1.2 1.2 0 0 1 1-.4 1 1 0 1 1 0 2 1.2 1.2 0 0 1-1-.4h-2v2.2h2v-.2a1.2 1.2 0 0 1 1-.4 1 1 0 1 1 0 2 1.2 1.2 0 0 1-1-.3v-.3h-1.7l-.2.2a12.6 12.6 0 0 1-8.7 3 9.7 9.7 0 0 1-6-1.5 9 9 0 0 0-9.8 0z" fill="#fff"/><path d="M144.5 124.6c3.3 1.7 6 2.2 10.6-.3a11.8 11.8 0 0 1 13.8 2v1.6c-3.8-5-10-4.8-14.3-2.4-3.5 2-7.4 1.8-11.3-.6v-21l1-.6v21z" fill="#fff"/><path d="M145.3 123.8v-21a14.7 14.7 0 0 0 10-1c4.5-2 9-1.3 13.5 1.7V125a13 13 0 0 0-8.3-3 12.5 12.5 0 0 0-5.8 1.4c-4.3 2.2-6.5 2-9.4.4zm38.1.5c4.8 2.5 7.4 2 10.7.3h.3v-21.3l1 .6v21c-4.2 2-8 2.3-11.3.7-4.3-2.2-10.3-2.8-14.2 2.2v-1.6a11.8 11.8 0 0 1 13.7-2z" fill="#fff"/><path d="M169.8 125v-21.4c4.4-3 9-3.7 13.4-1.8a14.7 14.7 0 0 0 10 1v21c-2.8 1.5-5 1.8-9.3-.4a12.7 12.7 0 0 0-14.2 1.6zm23.8-26l-5.7-4.3L182 99l2.2-6.8-6-4.3h7.3l2.2-7 2 7h7.3l-6 4.2 2.3 6.8m-36.9.1l-5.7-4.2L145 99l2.2-6.8-6-4.3h7.3l2.2-7 2.2 7h7.2l-6 4.2 2.2 7m7.3 53.6l2.2-6.8-6-4.4h7.3l2.3-7 2.2 7h7.3l-6 4.3 2.2 6.7-5.7-4.3-5.7 4.3" fill="#fff"/></symbol><symbol viewBox="0 0 16 16" id="plus"><path d="M16 7H9V0H7v7H0v2h7v7h2V9h7"/></symbol><symbol viewBox="0 0 32 32" id="tick"><path d="M16 0C7.2 0 0 7.2 0 16s7.2 16 16 16 16-7.2 16-16S24.8 0 16 0zm8 12l-9.7 10.2c-.2.3-.6.3-1 0V22l-.3-.2-1-1-4-4.4c-.3-.3-.3-.7 0-1l1-1.2c.2-.2.6-.2 1 0l3.7 4 8-8.2c0-.3.5-.3.8 0l1.3 1.4c.3.2.3.6 0 1z"/></symbol></svg>